# xmcd CD database file
#
# Track frame offsets:
#	150
#	22117
#	38855
#	56181
#	74234
#	91027
#	106274
#	124893
#	138551
#	155845
#	170743
#	191423
#	206878
#
# Disc length: 2973 seconds
#
# Revision: 0
# Processed by: cddbd v1.5.2PL0 Copyright (c) Steve Scherf et al.
# Submitted via: CDex 1.70beta2
#
DISCID=cb0b9b0d
DTITLE=cheryl wheeler  - driving home 
DYEAR=1900
DGENRE=Country
TTITLE0=Cheryl Wheeler - Driving Home
TTITLE1=Cheryl Wheeler - Silver Lining
TTITLE2=Cheryl Wheeler - Music In My Room
TTITLE3=Cheryl Wheeler - Cheryl Wheeler - Frequently Wrong But Never In Doubt
TTITLE4=Cheryl Wheeler - Don't Forget The Guns
TTITLE5=Cheryl Wheeler - Act of Nature
TTITLE6=Cheryl Wheeler - 75 Septembers
TTITLE7=Cheryl Wheeler - Spring
TTITLE8=Cheryl Wheeler - Bad Connection
TTITLE9=Cheryl Wheeler - When Fall Comes To New England
TTITLE10=Cheryl Wheeler - Orbiting Jupiter
TTITLE11=Cheryl Wheeler - Almost
TTITLE12=Cheryl Wheeler - Your Radio's Up Too Loud
EXTD=
EXTT0=
EXTT1=
EXTT2=
EXTT3=
EXTT4=
EXTT5=
EXTT6=
EXTT7=
EXTT8=
EXTT9=
EXTT10=
EXTT11=
EXTT12=
PLAYORDER=
